<?xml version="1.0" standalone="no"?>
<!DOCTYPE svg PUBLIC "-//W3C//DTD SVG 20010904//EN"
 "http://www.w3.org/TR/2001/REC-SVG-20010904/DTD/svg10.dtd">
<svg version="1.0" xmlns="http://www.w3.org/2000/svg"
 width="200.000000pt" height="200.000000pt" viewBox="0 0 200.000000 200.000000"
 preserveAspectRatio="xMidYMid meet">
<g transform="translate(0.000000,200.000000) scale(0.100000,-0.100000)"
fill="#000000" stroke="none"> <path fill="#4CAF50" d="M899 1897 c-19 -13 -48 -30 -64 -38 -17 -9 -104 -60 -195 -114 -158
-93 -298 -176 -367 -216 -67 -38 -113 -72 -114 -83 0 -6 -2 -19 -4 -28 -5 -26
40 -69 67 -64 22 4 341 186 400 227 14 10 29 19 32 19 4 0 25 11 47 26 22 14
55 33 72 43 101 57 214 126 230 139 38 34 6 112 -47 112 -13 0 -39 -10 -57
-23z" />
                                    <path fill="#4CAF50" d="M1165 1759 c-22 -12 -60 -33 -85 -49 -46 -28 -279 -166 -315 -186
-11 -6 -65 -38 -120 -71 -55 -33 -126 -74 -158 -92 -31 -18 -62 -41 -67 -51
-6 -12 -10 -185 -10 -455 l0 -436 26 -25 c19 -20 31 -24 52 -19 58 14 56 -1
57 450 l0 414 85 50 c47 28 92 55 100 61 8 6 22 13 30 17 18 8 413 242 469
277 21 14 42 34 46 45 10 31 -5 68 -31 80 -33 14 -33 14 -79 -10z" />
                                    <path fill="#4CAF50" d="M1407 1607 c-34 -17 -66 -35 -72 -39 -11 -10 -175 -108 -179 -108 -2
0 -74 -43 -161 -95 -87 -52 -161 -95 -164 -95 -4 0 -30 -16 -58 -35 -29 -19
-57 -35 -62 -35 -6 0 -18 -11 -26 -24 -14 -21 -16 -82 -17 -465 -1 -405 0
-442 16 -460 27 -29 64 -32 93 -7 l25 22 1 417 0 416 125 73 c141 82 157 92
227 133 27 17 62 37 76 45 277 157 312 183 305 225 -12 64 -47 73 -129 32z" />
                                    <path fill="#4CAF50" d="M1585 1439 c-80 -46 -385 -225 -535 -315 -30 -18 -72 -42 -92 -53
-66 -37 -85 -84 -48 -121 28 -28 68 -25 123 10 26 16 50 30 52 30 2 0 32 17
67 39 35 21 113 67 173 103 344 202 411 243 422 257 30 38 1 101 -45 101 -16
0 -68 -23 -117 -51z" />
                                    <path fill="#4CAF50" d="M1575 1152 c-55 -32 -131 -77 -169 -100 -37 -23 -70 -42 -73 -42 -2
0 -29 -16 -59 -35 -30 -19 -57 -35 -60 -35 -3 0 -30 -16 -60 -35 -30 -19 -57
-35 -60 -35 -3 0 -24 -13 -47 -29 -23 -15 -59 -36 -80 -46 -42 -20 -77 -59
-77 -86 0 -11 9 -28 20 -39 41 -41 51 -37 435 193 55 32 116 68 135 79 263
151 279 162 280 206 0 28 -33 62 -63 62 -12 0 -67 -26 -122 -58z" />
                                    <path fill="#4CAF50" d="M172 1170 c-41 -38 -17 -104 41 -114 20 -4 33 2 51 21 60 64 -28 152
-92 93z" />
                                    <path fill="#4CAF50" d="M1627 900 c-26 -16 -50 -30 -52 -30 -2 0 -82 -46 -177 -103 -95 -57
-229 -136 -298 -176 -182 -106 -203 -122 -207 -154 -5 -36 40 -81 73 -73 12 3
107 56 210 117 104 61 203 119 219 129 352 204 365 213 365 255 0 31 -32 65
-62 65 -13 0 -45 -13 -71 -30z" />
                                    <path fill="#4CAF50" d="M193 910 c-45 -18 -56 -77 -21 -110 27 -25 59 -26 86 -2 57 48 4 139
-65 112z" />
                                    <path fill="#4CAF50" d="M1620 616 c-114 -68 -216 -129 -260 -154 -25 -13 -56 -33 -70 -42
-14 -9 -29 -19 -35 -21 -12 -5 -243 -141 -307 -181 -53 -33 -67 -67 -43 -104
23 -35 58 -40 102 -14 21 13 52 31 68 40 98 56 384 225 464 273 52 31 95 57
97 57 13 0 113 72 118 85 11 30 6 54 -16 75 -30 28 -54 25 -118 -14z" />
                                    <path fill="#4CAF50" d="M172 618 c-30 -32 -28 -71 3 -96 26 -21 33 -21 72 -8 20 6 33 27 39
63 4 21 -29 53 -61 59 -23 4 -35 0 -53 -18z" />
</g>
</svg>
